<?xml version="1.0" encoding="UTF-8" standalone="no"?>
<!DOCTYPE svg PUBLIC "-//W3C//DTD SVG 1.1//EN" "http://www.w3.org/Graphics/SVG/1.1/DTD/svg11.dtd">
<svg width="100%" height="100%" viewBox="0 0 3840 1197" version="1.1" xmlns="http://www.w3.org/2000/svg" xmlns:xlink="http://www.w3.org/1999/xlink" xml:space="preserve" xmlns:serif="http://www.serif.com/" style="fill-rule:evenodd;clip-rule:evenodd;stroke-linejoin:round;stroke-miterlimit:2;">
    <g transform="matrix(1,0,0,0.848486,0,86.4959)">
        <path d="M3655.15,185.274C3516.26,-187.971 2994.51,42.467 2736.95,69.057C1503.91,196.356 544.314,0 544.314,0C472.304,0 401.722,1.596 330.525,11.908C287.898,18.083 244.222,28.614 205.118,47.047C180.123,58.829 165.503,67.936 144.114,85.445C132.457,94.988 121.2,108.037 112.295,120.106C55.321,197.322 70.678,305.85 97.194,391.372C101.776,406.149 106.627,420.85 111.956,435.374C117.782,451.255 124.033,466.986 130.648,482.555C137.866,499.545 145.484,516.37 153.445,533.025C162.112,551.157 171.088,569.149 180.522,586.895C196.772,617.46 217.925,646.861 227.004,680.861C240.6,731.776 265.668,955.904 284.351,1013.52C302.731,1070.21 332.527,1126.14 380.955,1162.81C400.551,1177.65 413.617,1185.5 435.983,1195.71C499.512,1224.7 573.927,1228.1 642.301,1222.49C728.182,1215.44 812.016,1195.3 894.16,1169.94C930.986,1158.57 991.308,1137.68 1033.5,1126.49C1117.35,1104.27 1204.75,1094.52 1290.95,1087.54C1421.49,1076.98 1552.07,1075.31 1682.96,1076.58C1824.15,1077.96 1965.43,1082.56 2106.39,1090.75C2484.9,1112.73 3155.2,1258.53 3389.16,1201.11C3559.42,1159.32 3463.26,940.026 3614.76,902.417C3808.68,854.276 3751.55,444.34 3655.15,185.274Z" style="fill:white;"/>
    </g>
    <g transform="matrix(2.62161,0,0,2.62161,-4823.54,-2607.88)">
        <g transform="matrix(380.161,0,0,380.161,1955.48,1352.31)">
            <path d="M0.452,0.016C0.421,0.016 0.398,0.005 0.381,-0.017C0.364,-0.039 0.356,-0.068 0.356,-0.105C0.355,-0.116 0.355,-0.127 0.355,-0.138C0.354,-0.149 0.355,-0.169 0.357,-0.197L0.333,-0.198L0.329,-0.312C0.328,-0.323 0.327,-0.335 0.325,-0.348C0.322,-0.362 0.319,-0.375 0.316,-0.388C0.313,-0.4 0.309,-0.409 0.306,-0.416C0.301,-0.426 0.297,-0.433 0.294,-0.437C0.291,-0.44 0.289,-0.445 0.289,-0.45C0.289,-0.455 0.293,-0.46 0.3,-0.465C0.307,-0.47 0.317,-0.474 0.328,-0.478C0.339,-0.482 0.351,-0.485 0.363,-0.488C0.375,-0.49 0.386,-0.491 0.395,-0.491C0.405,-0.491 0.414,-0.485 0.422,-0.473C0.43,-0.462 0.436,-0.436 0.439,-0.397L0.464,-0.133C0.465,-0.118 0.468,-0.107 0.473,-0.098C0.478,-0.089 0.484,-0.084 0.491,-0.084C0.511,-0.084 0.528,-0.096 0.543,-0.12C0.557,-0.144 0.568,-0.175 0.575,-0.213C0.582,-0.251 0.586,-0.291 0.586,-0.334C0.586,-0.361 0.583,-0.382 0.576,-0.395C0.569,-0.408 0.565,-0.419 0.565,-0.428C0.565,-0.434 0.569,-0.441 0.577,-0.448C0.585,-0.455 0.595,-0.462 0.606,-0.469C0.617,-0.476 0.629,-0.481 0.641,-0.485C0.652,-0.489 0.661,-0.491 0.668,-0.491C0.677,-0.491 0.686,-0.488 0.693,-0.483C0.7,-0.477 0.704,-0.464 0.704,-0.445C0.704,-0.377 0.696,-0.315 0.681,-0.259C0.665,-0.202 0.644,-0.154 0.619,-0.113C0.593,-0.071 0.566,-0.04 0.537,-0.018C0.507,0.005 0.479,0.016 0.452,0.016ZM0.186,0.016C0.151,0.016 0.127,0.003 0.112,-0.023C0.097,-0.049 0.086,-0.087 0.081,-0.138L0.063,-0.331C0.062,-0.346 0.059,-0.362 0.056,-0.378C0.053,-0.393 0.049,-0.406 0.044,-0.415C0.039,-0.424 0.035,-0.431 0.032,-0.435C0.029,-0.438 0.027,-0.443 0.027,-0.448C0.027,-0.453 0.031,-0.459 0.038,-0.464C0.045,-0.469 0.055,-0.473 0.066,-0.477C0.077,-0.482 0.089,-0.485 0.101,-0.488C0.113,-0.49 0.124,-0.491 0.133,-0.491C0.142,-0.491 0.15,-0.485 0.157,-0.472C0.164,-0.459 0.17,-0.434 0.173,-0.397L0.195,-0.171C0.198,-0.144 0.202,-0.123 0.207,-0.108C0.212,-0.092 0.221,-0.084 0.233,-0.084C0.243,-0.084 0.256,-0.091 0.271,-0.106C0.285,-0.12 0.299,-0.144 0.311,-0.177C0.323,-0.21 0.329,-0.255 0.329,-0.312L0.371,-0.231C0.364,-0.168 0.351,-0.118 0.331,-0.082C0.311,-0.046 0.288,-0.021 0.262,-0.006C0.236,0.009 0.211,0.016 0.186,0.016Z" style="fill:rgb(39,39,39);fill-rule:nonzero;"/>
        </g>
        <g transform="matrix(380.161,0,0,380.161,2229.57,1352.31)">
            <path d="M0.357,0.01C0.352,0.01 0.347,0.006 0.344,-0.001C0.34,-0.008 0.337,-0.015 0.336,-0.024C0.335,-0.033 0.334,-0.04 0.334,-0.045C0.334,-0.054 0.335,-0.066 0.336,-0.081C0.337,-0.096 0.339,-0.111 0.341,-0.128C0.343,-0.144 0.345,-0.158 0.347,-0.17L0.364,-0.274C0.366,-0.287 0.368,-0.3 0.37,-0.312C0.372,-0.323 0.373,-0.336 0.373,-0.349C0.373,-0.359 0.371,-0.367 0.367,-0.372C0.363,-0.377 0.358,-0.38 0.351,-0.38C0.342,-0.38 0.328,-0.372 0.309,-0.356C0.289,-0.339 0.268,-0.316 0.246,-0.285C0.223,-0.254 0.203,-0.217 0.185,-0.173C0.166,-0.13 0.154,-0.08 0.149,-0.025L0.124,-0.175C0.151,-0.252 0.182,-0.314 0.216,-0.36C0.25,-0.406 0.284,-0.439 0.317,-0.46C0.35,-0.48 0.38,-0.49 0.405,-0.49C0.434,-0.49 0.456,-0.482 0.469,-0.465C0.482,-0.448 0.489,-0.426 0.489,-0.399C0.489,-0.384 0.488,-0.369 0.486,-0.353C0.483,-0.337 0.481,-0.32 0.478,-0.303L0.43,0.01L0.357,0.01ZM0.06,0.014C0.051,0.014 0.045,0.012 0.041,0.008C0.036,0.005 0.034,-0.003 0.034,-0.016C0.034,-0.029 0.035,-0.048 0.038,-0.075L0.081,-0.469C0.085,-0.507 0.09,-0.545 0.096,-0.583C0.102,-0.62 0.106,-0.658 0.108,-0.696L0.178,-0.696C0.191,-0.696 0.201,-0.687 0.207,-0.669C0.214,-0.651 0.217,-0.633 0.217,-0.614C0.217,-0.599 0.216,-0.586 0.215,-0.575C0.214,-0.563 0.212,-0.551 0.209,-0.538C0.206,-0.525 0.203,-0.509 0.198,-0.49L0.134,-0.197L0.167,-0.238C0.162,-0.195 0.159,-0.155 0.156,-0.117C0.153,-0.079 0.151,-0.048 0.149,-0.025C0.149,-0.018 0.143,-0.012 0.132,-0.006C0.12,-0 0.107,0.005 0.093,0.008C0.079,0.012 0.068,0.014 0.06,0.014Z" style="fill:rgb(39,39,39);fill-rule:nonzero;"/>
        </g>
        <g transform="matrix(380.161,0,0,380.161,2431.06,1352.31)">
            <path d="M0.068,0.016C0.057,0.016 0.049,0.009 0.046,-0.004C0.043,-0.017 0.041,-0.03 0.041,-0.044C0.041,-0.068 0.042,-0.089 0.045,-0.108C0.047,-0.127 0.049,-0.147 0.052,-0.17L0.088,-0.491L0.158,-0.491C0.171,-0.491 0.18,-0.484 0.184,-0.469C0.188,-0.454 0.19,-0.438 0.19,-0.419C0.19,-0.41 0.189,-0.4 0.188,-0.39C0.187,-0.379 0.185,-0.363 0.182,-0.342L0.163,-0.179C0.159,-0.144 0.155,-0.115 0.152,-0.092C0.149,-0.069 0.146,-0.049 0.144,-0.032C0.142,-0.015 0.14,0.001 0.138,0.016L0.068,0.016ZM0.156,-0.548C0.137,-0.548 0.121,-0.554 0.108,-0.567C0.094,-0.58 0.087,-0.596 0.087,-0.617C0.087,-0.642 0.095,-0.661 0.111,-0.675C0.127,-0.688 0.145,-0.695 0.166,-0.695C0.185,-0.695 0.202,-0.689 0.215,-0.678C0.228,-0.667 0.234,-0.65 0.234,-0.627C0.234,-0.604 0.226,-0.586 0.211,-0.571C0.196,-0.556 0.177,-0.548 0.156,-0.548Z" style="fill:rgb(39,39,39);fill-rule:nonzero;"/>
        </g>
        <g transform="matrix(380.161,0,0,380.161,2519.26,1352.31)">
            <path d="M0.166,0.016C0.115,0.016 0.076,0.008 0.047,-0.008C0.018,-0.023 0.003,-0.044 0.003,-0.071C0.003,-0.083 0.005,-0.094 0.009,-0.105C0.012,-0.115 0.018,-0.12 0.025,-0.12C0.028,-0.12 0.031,-0.119 0.034,-0.118C0.037,-0.117 0.044,-0.113 0.053,-0.107C0.066,-0.098 0.081,-0.09 0.098,-0.083C0.114,-0.076 0.131,-0.07 0.148,-0.066C0.165,-0.061 0.18,-0.059 0.195,-0.059C0.216,-0.059 0.232,-0.064 0.242,-0.075C0.251,-0.085 0.256,-0.099 0.256,-0.116C0.256,-0.129 0.252,-0.139 0.245,-0.148C0.237,-0.156 0.225,-0.165 0.208,-0.176L0.146,-0.216C0.12,-0.233 0.098,-0.251 0.081,-0.27C0.063,-0.289 0.054,-0.313 0.054,-0.344C0.054,-0.387 0.071,-0.423 0.104,-0.45C0.137,-0.476 0.184,-0.49 0.245,-0.49C0.288,-0.49 0.319,-0.486 0.339,-0.477C0.359,-0.468 0.369,-0.453 0.369,-0.432C0.369,-0.415 0.367,-0.401 0.362,-0.39C0.357,-0.379 0.35,-0.373 0.341,-0.373C0.338,-0.373 0.335,-0.374 0.331,-0.375C0.326,-0.376 0.322,-0.378 0.319,-0.38C0.314,-0.383 0.305,-0.388 0.294,-0.394C0.283,-0.4 0.27,-0.406 0.256,-0.41C0.242,-0.416 0.227,-0.418 0.212,-0.418C0.197,-0.418 0.184,-0.413 0.174,-0.405C0.165,-0.396 0.16,-0.383 0.16,-0.368C0.16,-0.355 0.164,-0.345 0.172,-0.336C0.18,-0.327 0.193,-0.318 0.212,-0.309L0.277,-0.279C0.304,-0.266 0.327,-0.252 0.344,-0.234C0.361,-0.218 0.369,-0.192 0.369,-0.159C0.369,-0.12 0.36,-0.087 0.341,-0.061C0.322,-0.035 0.297,-0.016 0.266,-0.003C0.234,0.01 0.201,0.016 0.166,0.016Z" style="fill:rgb(39,39,39);fill-rule:nonzero;"/>
        </g>
        <g transform="matrix(380.161,0,0,380.161,2672.46,1352.31)">
            <path d="M0.384,0.011C0.369,0.011 0.354,0.004 0.339,-0.01C0.324,-0.024 0.309,-0.043 0.294,-0.066C0.279,-0.089 0.266,-0.114 0.253,-0.142C0.239,-0.17 0.228,-0.198 0.219,-0.227C0.216,-0.235 0.213,-0.245 0.21,-0.256C0.207,-0.267 0.205,-0.278 0.205,-0.289C0.205,-0.296 0.206,-0.303 0.209,-0.31C0.211,-0.316 0.214,-0.323 0.219,-0.33C0.232,-0.351 0.249,-0.372 0.268,-0.391C0.286,-0.41 0.307,-0.428 0.33,-0.443C0.353,-0.458 0.376,-0.469 0.4,-0.477C0.424,-0.486 0.447,-0.49 0.47,-0.49C0.488,-0.49 0.5,-0.486 0.505,-0.477C0.511,-0.468 0.514,-0.456 0.514,-0.441C0.514,-0.426 0.512,-0.413 0.508,-0.403C0.505,-0.392 0.5,-0.383 0.495,-0.377C0.49,-0.371 0.485,-0.368 0.48,-0.368C0.471,-0.368 0.461,-0.371 0.45,-0.376C0.439,-0.381 0.425,-0.384 0.409,-0.384C0.382,-0.384 0.357,-0.375 0.334,-0.358C0.311,-0.34 0.293,-0.32 0.28,-0.299L0.29,-0.342C0.319,-0.265 0.345,-0.208 0.369,-0.169C0.393,-0.13 0.414,-0.102 0.431,-0.084C0.442,-0.073 0.452,-0.065 0.461,-0.061C0.47,-0.056 0.474,-0.051 0.474,-0.044C0.474,-0.035 0.469,-0.027 0.458,-0.019C0.447,-0.01 0.434,-0.003 0.42,0.002C0.406,0.008 0.394,0.011 0.384,0.011ZM0.081,0.014C0.069,0.014 0.06,0.007 0.053,-0.008C0.046,-0.023 0.043,-0.04 0.044,-0.059C0.045,-0.082 0.047,-0.109 0.05,-0.14C0.053,-0.171 0.057,-0.202 0.06,-0.233L0.088,-0.469C0.092,-0.499 0.093,-0.526 0.091,-0.549C0.089,-0.572 0.086,-0.593 0.083,-0.611C0.08,-0.629 0.078,-0.644 0.078,-0.657C0.078,-0.664 0.084,-0.671 0.096,-0.677C0.107,-0.682 0.121,-0.687 0.136,-0.691C0.151,-0.694 0.164,-0.696 0.175,-0.696C0.186,-0.696 0.196,-0.688 0.205,-0.672C0.214,-0.655 0.218,-0.636 0.218,-0.615C0.218,-0.61 0.217,-0.597 0.216,-0.576C0.215,-0.555 0.212,-0.53 0.208,-0.503L0.176,-0.273C0.169,-0.225 0.165,-0.177 0.162,-0.13C0.159,-0.082 0.156,-0.034 0.151,0.014L0.081,0.014Z" style="fill:rgb(39,39,39);fill-rule:nonzero;"/>
        </g>
        <g transform="matrix(380.161,0,0,380.161,2858.36,1352.31)">
            <path d="M0.181,0.016C0.13,0.016 0.09,-0 0.062,-0.033C0.034,-0.065 0.02,-0.109 0.02,-0.166C0.02,-0.213 0.027,-0.257 0.04,-0.296C0.053,-0.335 0.072,-0.37 0.096,-0.399C0.12,-0.428 0.148,-0.451 0.181,-0.467C0.213,-0.483 0.248,-0.491 0.286,-0.491C0.331,-0.491 0.366,-0.481 0.39,-0.462C0.414,-0.443 0.426,-0.415 0.426,-0.379C0.426,-0.342 0.414,-0.31 0.39,-0.283C0.365,-0.256 0.33,-0.232 0.284,-0.213C0.239,-0.194 0.184,-0.177 0.121,-0.164L0.108,-0.224C0.145,-0.229 0.178,-0.237 0.209,-0.248C0.24,-0.259 0.264,-0.275 0.283,-0.294C0.302,-0.313 0.311,-0.335 0.311,-0.361C0.311,-0.379 0.308,-0.393 0.301,-0.402C0.294,-0.411 0.281,-0.416 0.263,-0.416C0.236,-0.416 0.213,-0.406 0.194,-0.386C0.174,-0.366 0.16,-0.34 0.151,-0.308C0.141,-0.276 0.136,-0.242 0.136,-0.206C0.136,-0.157 0.143,-0.125 0.159,-0.109C0.173,-0.092 0.196,-0.084 0.225,-0.084C0.256,-0.084 0.282,-0.089 0.306,-0.099C0.329,-0.108 0.348,-0.118 0.365,-0.129C0.37,-0.132 0.375,-0.135 0.379,-0.137C0.383,-0.139 0.386,-0.14 0.389,-0.14C0.392,-0.14 0.395,-0.139 0.397,-0.136C0.399,-0.133 0.4,-0.13 0.4,-0.127C0.4,-0.115 0.395,-0.101 0.384,-0.085C0.373,-0.069 0.358,-0.053 0.339,-0.038C0.319,-0.023 0.296,-0.01 0.269,0C0.242,0.011 0.213,0.016 0.181,0.016Z" style="fill:rgb(39,39,39);fill-rule:nonzero;"/>
        </g>
        <g transform="matrix(380.161,0,0,380.161,3026.39,1352.31)">
            <path d="M0.147,-0.024L0.123,-0.175C0.148,-0.239 0.173,-0.295 0.199,-0.342C0.224,-0.389 0.25,-0.425 0.277,-0.451C0.304,-0.477 0.331,-0.49 0.358,-0.49C0.373,-0.49 0.384,-0.485 0.391,-0.475C0.398,-0.466 0.401,-0.454 0.401,-0.439C0.401,-0.426 0.4,-0.413 0.397,-0.401C0.394,-0.388 0.389,-0.378 0.384,-0.37C0.378,-0.362 0.371,-0.358 0.363,-0.358C0.356,-0.358 0.347,-0.36 0.339,-0.365C0.33,-0.37 0.317,-0.372 0.302,-0.372C0.292,-0.372 0.279,-0.362 0.264,-0.341C0.249,-0.32 0.233,-0.293 0.217,-0.259C0.2,-0.224 0.186,-0.187 0.173,-0.146C0.16,-0.105 0.152,-0.064 0.147,-0.024ZM0.063,0.014C0.054,0.014 0.048,0.012 0.043,0.009C0.039,0.006 0.037,-0.001 0.037,-0.014C0.036,-0.027 0.038,-0.047 0.041,-0.075L0.088,-0.491L0.158,-0.491C0.168,-0.491 0.177,-0.484 0.185,-0.469C0.193,-0.454 0.197,-0.438 0.197,-0.419C0.197,-0.41 0.195,-0.397 0.19,-0.379C0.185,-0.36 0.179,-0.341 0.172,-0.321C0.165,-0.3 0.159,-0.282 0.154,-0.267L0.128,-0.185L0.165,-0.191L0.147,-0.024C0.146,-0.017 0.142,-0.012 0.135,-0.007C0.128,-0.002 0.119,0.002 0.11,0.005C0.1,0.008 0.091,0.011 0.082,0.012C0.073,0.013 0.067,0.014 0.063,0.014Z" style="fill:rgb(39,39,39);fill-rule:nonzero;"/>
        </g>
    </g>
</svg>
